<?xml version="1.0" encoding="UTF-8"?>
<!--
Font Awesome Pro 5.15.4 by @fontawesome - https://fontawesome.com
License - https://fontawesome.com/license (Commercial License)
-->
<svg xmlns="http://www.w3.org/2000/svg" style="display: none;">
  <defs><style>.fa-secondary { opacity:.4; }</style></defs>
  <symbol id="arrow-to-bottom" viewBox="0 0 384 512">
    <path d="M360 480H24a23.94 23.94 0 0 1-24-23.88V440a23.94 23.94 0 0 1 23.88-24H360a23.94 23.94 0 0 1 24 23.88V456a23.94 23.94 0 0 1-23.88 24z" class="fa-secondary"></path><path d="M327.87 190.52l17.06 17a23.86 23.86 0 0 1 .17 33.74l-.17.17L209 377a24 24 0 0 1-33.94.06L175 377 39.07 241.43a23.86 23.86 0 0 1-.17-33.74l.17-.17 17.06-17a24 24 0 0 1 33.94-.06l.06.06 65.81 65.61V56a24 24 0 0 1 24-24h24.14a24 24 0 0 1 24.07 23.93v200.2L294 190.52a23.91 23.91 0 0 1 33.8-.07z" class="fa-primary"></path>
  </symbol>
  <symbol id="brackets-curly" viewBox="0 0 576 512">
    <path d="M566.64 233.37a32 32 0 0 1 0 45.25l-45.25 45.25a32 32 0 0 0-9.39 22.64V384a96 96 0 0 1-96 96h-48a16 16 0 0 1-16-16v-32a16 16 0 0 1 16-16h48a32 32 0 0 0 32-32v-37.48a96 96 0 0 1 28.13-67.89L498.76 256l-22.62-22.62A96 96 0 0 1 448 165.47V128a32 32 0 0 0-32-32h-48a16 16 0 0 1-16-16V48a16 16 0 0 1 16-16h48a96 96 0 0 1 96 96v37.48a32 32 0 0 0 9.38 22.65l45.25 45.24z" class="fa-secondary"></path><path d="M208 32h-48a96 96 0 0 0-96 96v37.48a32.12 32.12 0 0 1-9.38 22.65L9.38 233.37a32 32 0 0 0 0 45.25l45.25 45.25A32.05 32.05 0 0 1 64 346.51V384a96 96 0 0 0 96 96h48a16 16 0 0 0 16-16v-32a16 16 0 0 0-16-16h-48a32 32 0 0 1-32-32v-37.48a96 96 0 0 0-28.13-67.89L77.26 256l22.63-22.63A96 96 0 0 0 128 165.48V128a32 32 0 0 1 32-32h48a16 16 0 0 0 16-16V48a16 16 0 0 0-16-16z" class="fa-primary"></path>
  </symbol>
  <symbol id="bug" viewBox="0 0 512 512">
    <path d="M369 112H145a112 112 0 0 1 224 0z" class="fa-secondary"></path><path d="M512 288.9c-.48 17.43-15.22 31.1-32.66 31.1H424v16a143.4 143.4 0 0 1-13.6 61.14l60.23 60.23a32 32 0 0 1-45.26 45.26l-54.73-54.74A143.42 143.42 0 0 1 280 480V236a12 12 0 0 0-12-12h-24a12 12 0 0 0-12 12v244a143.42 143.42 0 0 1-90.64-32.11l-54.73 54.74a32 32 0 0 1-45.26-45.26l60.23-60.23A143.4 143.4 0 0 1 88 336v-16H32.67C15.23 320 .49 306.33 0 288.9A32 32 0 0 1 32 256h56v-58.74l-46.63-46.63a32 32 0 0 1 45.26-45.26L141.25 160h229.49l54.63-54.63a32 32 0 0 1 45.26 45.26L424 197.26V256h56a32 32 0 0 1 32 32.9z" class="fa-primary"></path>
  </symbol>
  <symbol id="check" viewBox="0 0 512 512">
    <path d="M504.5 144.42L264.75 385.5 192 312.59l240.11-241a25.49 25.49 0 0 1 36.06-.14l.14.14L504.5 108a25.86 25.86 0 0 1 0 36.42z" class="fa-secondary"></path><path d="M264.67 385.59l-54.57 54.87a25.5 25.5 0 0 1-36.06.14l-.14-.14L7.5 273.1a25.84 25.84 0 0 1 0-36.41l36.2-36.41a25.49 25.49 0 0 1 36-.17l.16.17z" class="fa-primary"></path>
  </symbol>  
  <symbol id="cloud" viewBox="0 0 640 512">
    <path d="" class="fa-secondary"></path><path d="M640 352a128 128 0 0 1-128 128H144a144 144 0 0 1-47.8-279.9c-.1-2.7-.2-5.4-.2-8.1a160 160 0 0 1 298.7-79.8A95.95 95.95 0 0 1 544 192a96.66 96.66 0 0 1-6.4 34.6A128 128 0 0 1 640 352z" class="fa-primary"></path>
  </symbol>  
  <symbol id="code" viewBox="0 0 640 512">
    <path d="M422.12 18.16a12 12 0 0 1 8.2 14.9l-136.5 470.2a12 12 0 0 1-14.89 8.2l-61-17.7a12 12 0 0 1-8.2-14.9l136.5-470.2a12 12 0 0 1 14.89-8.2z" class="fa-secondary"></path><path d="M636.23 247.26l-144.11-135.2a12.11 12.11 0 0 0-17 .5L431.62 159a12 12 0 0 0 .81 17.2L523 256l-90.59 79.7a11.92 11.92 0 0 0-.81 17.2l43.5 46.4a12 12 0 0 0 17 .6l144.11-135.1a11.94 11.94 0 0 0 .02-17.54zm-427.8-88.2l-43.5-46.4a12 12 0 0 0-17-.5l-144.11 135a11.94 11.94 0 0 0 0 17.5l144.11 135.1a11.92 11.92 0 0 0 17-.5l43.5-46.4a12 12 0 0 0-.81-17.2L117 256l90.6-79.7a11.92 11.92 0 0 0 .83-17.24z" class="fa-primary"></path>
  </symbol>
  <symbol id="coffee" viewBox="0 0 640 512">
    <path d="M559.76 480H48.36c-47.6 0-61-64-36-64h583.3c25 0 11.8 64-35.9 64z" class="fa-secondary"></path><path d="M512.06 32h-392a23.94 23.94 0 0 0-24 24v232a96 96 0 0 0 96 96h192a96 96 0 0 0 96-96h32a128 128 0 0 0 0-256zm0 192h-32V96h32a64 64 0 0 1 0 128z" class="fa-primary"></path>
  </symbol>
  <symbol id="comments" viewBox="0 0 576 512">
    <path d="M208 352c-41 0-79.1-9.3-111.3-25-21.8 12.7-52.1 25-88.7 25a7.83 7.83 0 0 1-7.3-4.8 8 8 0 0 1 1.5-8.7c.3-.3 22.4-24.3 35.8-54.5-23.9-26.1-38-57.7-38-92C0 103.6 93.1 32 208 32s208 71.6 208 160-93.1 160-208 160z" class="fa-secondary"></path><path d="M576 320c0 34.3-14.1 66-38 92 13.4 30.3 35.5 54.2 35.8 54.5a8 8 0 0 1 1.5 8.7 7.88 7.88 0 0 1-7.3 4.8c-36.6 0-66.9-12.3-88.7-25-32.2 15.8-70.3 25-111.3 25-86.2 0-160.2-40.4-191.7-97.9A299.82 299.82 0 0 0 208 384c132.3 0 240-86.1 240-192a148.61 148.61 0 0 0-1.3-20.1C522.5 195.8 576 253.1 576 320z" class="fa-primary"></path>
  </symbol>
  <symbol id="language" viewBox="0 0 640 512">
    <path d="M168.1 236.2c-3.5-12.1-7.8-33.2-7.8-33.2h-.5s-4.3 21.1-7.8 33.2l-11.1 37.5H179zM0 120v272.12A23.94 23.94 0 0 0 24 416h296V96H23.88A23.94 23.94 0 0 0 0 120zm74.62 216.19l57.65-168.14A12 12 0 0 1 143.7 160h32.58a12.23 12.23 0 0 1 11.43 8.05l57.64 168.14a11.7 11.7 0 0 1 .65 3.93A12 12 0 0 1 233.92 352H211a12 12 0 0 1-11.53-8.55L190 311.73h-60.34l-9.12 31.62A12.11 12.11 0 0 1 109 352H86a12.07 12.07 0 0 1-11.43-15.81zM564 188h-64v-16a12 12 0 0 0-12-12h-16a12 12 0 0 0-12 12v16h-64a12 12 0 0 0-12 12v16a12 12 0 0 0 12 12h114.3c-6.2 14.3-16.5 29-30 43.19a191 191 0 0 1-17.4-20.89 12.09 12.09 0 0 0-16-3.4l-7.3 4.3-6.5 3.89-.64.41a12 12 0 0 0-3.06 16.69 231.81 231.81 0 0 0 21 25.69 284.34 284.34 0 0 1-26.1 18 12 12 0 0 0-4.2 16.2l7.9 13.89.2.34a12 12 0 0 0 16.5 4 352.44 352.44 0 0 0 35.4-24.89 348.11 348.11 0 0 0 35.4 24.89 3.79 3.79 0 0 0 .34.2 12 12 0 0 0 16.36-4.5l7.9-14.01a12 12 0 0 0-4.1-16.2 310.64 310.64 0 0 1-26.1-18c21-22.49 35.8-46.28 42.7-69.88H564a12 12 0 0 0 12-12V200a12 12 0 0 0-12-12z" class="fa-secondary"></path><path d="M616.12 96H320v320h296a23.94 23.94 0 0 0 24-23.88V120a23.94 23.94 0 0 0-23.88-24zM576 216a12 12 0 0 1-12 12h-11.4c-6.9 23.6-21.7 47.39-42.7 69.88a310.64 310.64 0 0 0 26.1 18 12 12 0 0 1 4.1 16.2l-7.9 13.89a12 12 0 0 1-16.36 4.5 3.79 3.79 0 0 1-.34-.2 348.11 348.11 0 0 1-35.4-24.89 352.44 352.44 0 0 1-35.4 24.89 12 12 0 0 1-16.5-4l-.2-.34-7.9-13.93a12 12 0 0 1 4.2-16.2 284.34 284.34 0 0 0 26.1-18 231.81 231.81 0 0 1-21-25.69 12 12 0 0 1 3.06-16.69l.64-.41 6.5-3.89 7.3-4.3a12.09 12.09 0 0 1 16 3.4 191 191 0 0 0 17.4 20.89c13.5-14.2 23.8-28.89 30-43.19H396a12 12 0 0 1-12-12V200a12 12 0 0 1 12-12h64v-16a12 12 0 0 1 12-12h16a12 12 0 0 1 12 12v16h64a12 12 0 0 1 12 12zm-388.29-47.95a12.23 12.23 0 0 0-11.43-8.05H143.7a12 12 0 0 0-11.43 8.05L74.62 336.19A12.07 12.07 0 0 0 86.05 352h23a12.11 12.11 0 0 0 11.53-8.65l9.12-31.62H190l9.42 31.72A12 12 0 0 0 211 352h23a12 12 0 0 0 12-11.88 11.7 11.7 0 0 0-.65-3.93zM140.9 273.7l11.1-37.5c3.5-12.1 7.8-33.2 7.8-33.2h.5s4.3 21.1 7.8 33.2l10.9 37.5z" class="fa-primary"></path>
  </symbol>
  <symbol id="newspaper" viewBox="0 0 576 512">
    <path d="M544 64H96a32 32 0 0 0-32 32v322.21c0 .36-.05.73-.09 1.09 0 .21 0 .42-.08.63s-.08.66-.13 1-.08.46-.12.68-.1.61-.16.91-.11.46-.16.69-.13.59-.21.87-.13.46-.19.69l-.24.84-.24.68c-.09.28-.18.55-.28.82s-.17.45-.26.67-.21.53-.32.79-.2.45-.3.67-.23.51-.35.76l-.33.65c-.13.25-.25.49-.39.74l-.36.63-.42.72-.39.61c-.15.23-.3.46-.46.69l-.42.6-.48.66c-.15.2-.3.39-.46.58s-.33.43-.51.64l-.48.55-.54.61-.51.53c-.18.2-.37.39-.57.59l-.53.5-.6.56-.55.48-.62.52-.58.46-.65.49-.6.43-.68.46c-.2.14-.41.27-.62.4l-.69.43-.65.37c-.23.13-.47.27-.71.39l-.67.34c-.24.13-.48.25-.73.36l-.69.31-.74.32-.71.28-.77.29-.72.24-.78.25-.75.21-.79.21-.76.17-.81.17-.77.14-.82.12-.79.1-.83.09-.81.06h-1.65H528a48 48 0 0 0 48-48V96a32 32 0 0 0-32-32zM304 372a12 12 0 0 1-12 12H140a12 12 0 0 1-12-12v-8a12 12 0 0 1 12-12h152a12 12 0 0 1 12 12zm0-96a12 12 0 0 1-12 12H140a12 12 0 0 1-12-12v-8a12 12 0 0 1 12-12h152a12 12 0 0 1 12 12zm208 96a12 12 0 0 1-12 12H348a12 12 0 0 1-12-12v-8a12 12 0 0 1 12-12h152a12 12 0 0 1 12 12zm0-96a12 12 0 0 1-12 12H348a12 12 0 0 1-12-12v-8a12 12 0 0 1 12-12h152a12 12 0 0 1 12 12zm0-96a12 12 0 0 1-12 12H140a12 12 0 0 1-12-12v-40a12 12 0 0 1 12-12h360a12 12 0 0 1 12 12z" class="fa-secondary"></path><path d="M292 352H140a12 12 0 0 0-12 12v8a12 12 0 0 0 12 12h152a12 12 0 0 0 12-12v-8a12 12 0 0 0-12-12zm0-96H140a12 12 0 0 0-12 12v8a12 12 0 0 0 12 12h152a12 12 0 0 0 12-12v-8a12 12 0 0 0-12-12zm208 96H348a12 12 0 0 0-12 12v8a12 12 0 0 0 12 12h152a12 12 0 0 0 12-12v-8a12 12 0 0 0-12-12zm0-96H348a12 12 0 0 0-12 12v8a12 12 0 0 0 12 12h152a12 12 0 0 0 12-12v-8a12 12 0 0 0-12-12zM0 128v287.33c0 17.44 13.67 32.18 31.1 32.67A32 32 0 0 0 64 416V96H32a32 32 0 0 0-32 32z" class="fa-primary"></path>
  </symbol>
  <symbol id="paw-claws" viewBox="0 0 512 512">
    <path d="M448 456.25c0 34.9-26.81 55.75-71.74 55.75-48.41 0-80.75-25.08-120.26-25.08-39.17 0-71.42 25.08-120.26 25.08C90.81 512 64 491.15 64 456.25 64 378.76 176.59 256 256 256s192 122.76 192 200.25z" class="fa-secondary"></path><path d="M320 0v75c-15.95 11.26-29.49 30.37-36 54.29-11.84 43.42 3.64 85.22 34.58 93.36s65.62-20.45 77.46-63.87c8.44-30.94 3-61.05-12-78.75zm173.51 190.37L448 128v66.94c-19.83 6.55-37.51 24.43-44.72 48.46-10.4 34.65 4.77 68.38 33.89 75.34s61.15-15.48 71.56-50.13a76 76 0 0 0 3.27-21.52 96.28 96.28 0 0 0-18.49-56.72zM192 75V0l-64 80c-15 17.7-20.45 47.82-12 78.75 11.84 43.42 46.53 72 77.46 63.87s46.42-49.94 34.58-93.36C221.49 105.33 208 86.21 192 75zM64 195v-67l-45.51 62.37A96.2 96.2 0 0 0 0 247.09a76.09 76.09 0 0 0 3.28 21.52c10.4 34.65 42.44 57.09 71.56 50.13s44.28-40.7 33.88-75.35c-7.21-24.03-24.89-41.91-44.72-48.46z" class="fa-primary"></path>
  </symbol>
  <symbol id="shield-check" viewBox="0 0 512 512">
    <path d="M466.5 83.67l-192-80a48.15 48.15 0 0 0-36.9 0l-192 80A48 48 0 0 0 16 128c0 198.5 114.5 335.69 221.5 380.29a48.15 48.15 0 0 0 36.9 0C360.1 472.58 496 349.27 496 128a48 48 0 0 0-29.5-44.33zm-47.2 114.21l-184 184a16.06 16.06 0 0 1-22.6 0l-104-104a16.07 16.07 0 0 1 0-22.61l22.6-22.6a16.07 16.07 0 0 1 22.6 0l70.1 70.1 150.1-150.1a16.07 16.07 0 0 1 22.6 0l22.6 22.6a15.89 15.89 0 0 1 0 22.61z" class="fa-secondary"></path><path d="M419.3 197.88l-184 184a16.06 16.06 0 0 1-22.6 0l-104-104a16.07 16.07 0 0 1 0-22.61l22.6-22.6a16.07 16.07 0 0 1 22.6 0l70.1 70.1 150.1-150.1a16.07 16.07 0 0 1 22.6 0l22.6 22.6a15.89 15.89 0 0 1 0 22.61z" class="fa-primary"></path>
  </symbol>
  <symbol id="terminal" viewBox="0 0 640 512">
    <path d="M640 421.34v32a24 24 0 0 1-24 24H312a24 24 0 0 1-24-24v-32a24 24 0 0 1 24-24h304a24 24 0 0 1 24 24z" class="fa-secondary"></path><path d="M29.7 464.66L7 442a24 24 0 0 1 0-33.9l154-154.76L7 98.6a24 24 0 0 1 0-33.9L29.7 42a24 24 0 0 1 33.94 0L258 236.37a24 24 0 0 1 0 33.94L63.64 464.66a24 24 0 0 1-33.94 0z" class="fa-primary"></path>
  </symbol>  
  <symbol id="times" viewBox="0 0 352 512">
    <path d="M9.21,356.07a31.46,31.46,0,0,0,0,44.48l22.24,22.24a31.46,31.46,0,0,0,44.48,0L176,322.72,109.28,256ZM342.79,111.45,320.55,89.21a31.46,31.46,0,0,0-44.48,0L176,189.28,242.72,256,342.79,155.93a31.46,31.46,0,0,0,0-44.48Z" class="fa-secondary"></path><path d="M342.79,356.07a31.46,31.46,0,0,1,0,44.48l-22.24,22.24a31.46,31.46,0,0,1-44.48,0L9.21,155.93a31.46,31.46,0,0,1,0-44.48L31.45,89.21a31.46,31.46,0,0,1,44.48,0Z" class="fa-primary"></path>
  </symbol>        
  <symbol id="usd-circle" viewBox="0 0 496 512">
    <path d="M248,8C111,8,0,119,0,256S111,504,248,504,496,393,496,256,385,8,248,8Zm24,376v16a16,16,0,0,1-16,16H240a16,16,0,0,1-16-16V383.8a88.76,88.76,0,0,1-46.4-15.1c-8.7-5.9-10-18.1-2.3-25.2l12-11.3c5.4-5.1,13.3-5.4,19.7-1.6a38.91,38.91,0,0,0,19.9,5.4h45c11.3,0,20.5-10.5,20.5-23.4,0-10.6-6.3-19.9-15.2-22.7L205,268c-29-8.8-49.2-37-49.2-68.6,0-39.3,30.6-71.3,68.2-71.4V112a16,16,0,0,1,16-16h16a16,16,0,0,1,16,16v16.2a88.76,88.76,0,0,1,46.4,15.1c8.7,5.9,10,18.1,2.3,25.2l-12,11.3c-5.4,5.1-13.3,5.4-19.7,1.6a38.91,38.91,0,0,0-19.9-5.4h-45c-11.3,0-20.5,10.5-20.5,23.4,0,10.6,6.3,19.9,15.2,22.7l72,21.9c29,8.8,49.2,37,49.2,68.6C340.2,351.9,309.6,383.8,272,384Z" class="fa-secondary"></path><path d="M224,128V112a16,16,0,0,1,16-16h16a16,16,0,0,1,16,16v16.2a88.76,88.76,0,0,1,46.4,15.1c8.7,5.9,10,18.1,2.3,25.2l-12,11.3c-5.4,5.1-13.3,5.4-19.7,1.6a38.91,38.91,0,0,0-19.9-5.4h-45c-11.3,0-20.5,10.5-20.5,23.4,0,10.6,6.3,19.9,15.2,22.7l72,21.9c29,8.8,49.2,37,49.2,68.6.2,39.3-30.4,71.2-68,71.4v16a16,16,0,0,1-16,16H240a16,16,0,0,1-16-16V383.8a88.76,88.76,0,0,1-46.4-15.1c-8.7-5.9-10-18.1-2.3-25.2l12-11.3c5.4-5.1,13.3-5.4,19.7-1.6a38.91,38.91,0,0,0,19.9,5.4h45c11.3,0,20.5-10.5,20.5-23.4,0-10.6-6.3-19.9-15.2-22.7L205,268c-29-8.8-49.2-37-49.2-68.6C155.8,160.1,186.4,128.1,224,128Z" class="fa-primary"></path>
  </symbol>
</svg>
